<svg width="24" height="12" viewBox="0 0 24 12" fill="none" xmlns="http://www.w3.org/2000/svg">
<path fill-rule="evenodd" clip-rule="evenodd" d="M3.77544 0.000112364C1.70513 0.030705 4.79658e-07 1.62146 0 3.55319V7.69627C0 9.628 1.705 11.2188 3.77544 11.2188H5.81773C7.70174 11.2188 9.26744 9.89576 9.53696 8.20323C9.57593 8.08881 9.59491 7.96928 9.59317 7.84923V5.64221C9.59324 5.61308 9.59324 5.60579 9.59317 5.59851C9.5926 5.57224 9.59103 5.54601 9.58848 5.51984C9.58032 5.43361 9.56146 5.34854 9.53227 5.26636C9.52374 5.24277 9.51437 5.21945 9.50417 5.19644C9.49969 5.18471 9.49501 5.17306 9.49012 5.16148C9.4508 5.07694 9.41473 5.01696 9.37301 4.96044C9.3566 4.93949 9.33941 4.91909 9.32148 4.89926C9.31382 4.8904 9.30601 4.88166 9.29806 4.87303C9.28003 4.8535 9.26129 4.83455 9.24185 4.81622C9.23264 4.80733 9.22327 4.79859 9.21375 4.79C9.08659 4.67132 8.9546 4.59565 8.81091 4.54526C8.7847 4.53565 8.75815 4.5269 8.73128 4.51904C8.71879 4.51885 8.7063 4.51885 8.69381 4.51904C8.66754 4.5109 8.64098 4.50361 8.61418 4.49719C8.56321 4.48677 8.51158 4.47947 8.4596 4.47533C8.4315 4.47441 8.40338 4.47441 8.37528 4.47533H6.00978C5.57733 4.46963 5.17508 4.68161 4.95707 5.03012C4.73905 5.37862 4.73905 5.80965 4.95707 6.15816C5.17508 6.50666 5.57733 6.71865 6.00978 6.71294H7.19487V7.66568C7.19487 8.39648 6.60082 8.95055 5.81773 8.95055H3.77544C2.99235 8.95055 2.39829 8.39648 2.39829 7.66568V3.5226C2.39829 2.7918 2.99221 2.23772 3.77544 2.23772H8.39402C8.82648 2.24343 9.22872 2.03144 9.44674 1.68294C9.66475 1.33443 9.66475 0.903403 9.44674 0.554897C9.22872 0.206392 8.82648 -0.00559387 8.39402 0.000112364H3.77544Z" fill="#191919" fill-opacity="0.6"/>
<path fill-rule="evenodd" clip-rule="evenodd" d="M13.1719 0.0306912C12.5115 0.0403377 11.9837 0.546398 11.9915 1.16261V10.0868C11.9854 10.4903 12.2126 10.8656 12.5861 11.069C12.9596 11.2724 13.4216 11.2724 13.7951 11.069C14.1687 10.8656 14.3959 10.4903 14.3898 10.0868V1.16261C14.3936 0.86057 14.2663 0.569931 14.037 0.356756C13.8076 0.143581 13.4956 0.0259817 13.1719 0.0306912Z" fill="#191919" fill-opacity="0.6"/>
<path fill-rule="evenodd" clip-rule="evenodd" d="M20.5635 0.0307057C18.4932 0.0307057 16.788 1.62147 16.788 3.55319V5.52858C16.7836 5.58387 16.7836 5.63938 16.788 5.69466V10.1C16.7819 10.5034 17.0091 10.8787 17.3827 11.0821C17.7562 11.2855 18.2182 11.2855 18.5917 11.0821C18.9652 10.8787 19.1925 10.5034 19.1863 10.1V6.74354H21.5846C22.0171 6.74924 22.4193 6.53726 22.6373 6.18875C22.8554 5.84025 22.8554 5.40922 22.6373 5.06071C22.4193 4.71221 22.0171 4.50022 21.5846 4.50593H19.1863V3.55319C19.1863 2.82239 19.7803 2.26832 20.5635 2.26832H22.7838C23.2162 2.27402 23.6185 2.06204 23.8365 1.71353C24.0545 1.36503 24.0545 0.933996 23.8365 0.585491C23.6185 0.236986 23.2162 0.0249994 22.7838 0.0307057H20.5635Z" fill="#191919" fill-opacity="0.6"/>
</svg>
