<svg width="24" height="24" viewBox="0 0 24 24" fill="none" xmlns="http://www.w3.org/2000/svg">
<path d="M12 0C5.38292 0 0 5.38292 0 12C0 18.6171 5.38292 24 12 24C18.6171 24 24 18.6159 24 12C24 5.38292 18.6171 0 12 0ZM12 21.8018C6.59575 21.8018 2.1982 17.4043 2.1982 12C2.1982 6.59575 6.59575 2.19935 12 2.19935C17.4043 2.19935 21.8018 6.5969 21.8018 12C21.8018 17.4043 17.4043 21.8018 12 21.8018Z" fill="white"/>
<path d="M15.4667 8.81094C13.8485 10.4461 12.2313 12.0813 10.6131 13.7176C9.85858 12.9777 9.10408 12.2379 8.34844 11.4991C7.33606 10.507 5.77974 12.0599 6.7944 13.0532C7.8124 14.0509 8.82931 15.0487 9.84852 16.0465C10.2742 16.4632 10.978 16.4755 11.4026 16.0465C13.2753 14.1523 15.148 12.2592 17.0207 10.3675C18.0185 9.35736 16.4645 7.80193 15.4667 8.81094Z" fill="white"/>
</svg>
